# xmcd
#
# Track frame offsets: 
#        150
#        22567
#        34600
#        52692
#        68702
#        86804
#        99090
#        123946
#        137005
#        153142
#        171178
#        185526
#
# Disc length: 2590 seconds
#
# Revision: 0
# Processed by: cddbd v1.5.2PL0 Copyright (c) Steve Scherf et al.
# Submitted via: ExactAudioCopyFreeDBPlugin 1.0
#
DISCID=820a1c0c
DTITLE=Edmundas Civinskas ir Jonis - Country Jonines 2
DYEAR=2000
DGENRE=Country
TTITLE0=Netektis
TTITLE1=Tyla gera byla
TTITLE2=Rudens veidas
TTITLE3=Gatviu zibintai
TTITLE4=Peleda
TTITLE5=Nykstuku kepuraite
TTITLE6=Kelias naktyje
TTITLE7=Ateik
TTITLE8=Niekas nesuzinos
TTITLE9=Ei, mergyt
TTITLE10=Siaurine zvaigzde
TTITLE11=Country polkiukas ''Neskubek''
EXTD=
EXTT0=
EXTT1=
EXTT2=
EXTT3=
EXTT4=
EXTT5=
EXTT6=
EXTT7=
EXTT8=
EXTT9=
EXTT10=
EXTT11=
PLAYORDER=
